<svg width="233" height="72" viewBox="0 0 233 72" fill="none" xmlns="http://www.w3.org/2000/svg">
<g clip-path="url(#clip0_1_21)">
<path d="M198.228 15.8754V31.7045H201.62H205.011L205.042 20.7863L205.088 9.88352L215.693 20.7863L226.298 31.7045H229.381H232.448V15.8754V0.0463333H229.057H225.666V10.841C225.666 16.7865 225.62 21.682 225.558 21.7129C225.481 21.7437 220.687 16.8792 214.891 10.9028L204.363 0.0463333H201.296H198.228V15.8754Z" fill="black"/>
<path d="M181.119 15.8754V31.7045H184.51H187.901V15.8754V0.0463333H184.51H181.119V15.8754Z" fill="black"/>
<path d="M142.86 15.5974C139.068 24.1683 135.924 31.2875 135.862 31.4419C135.77 31.689 135.97 31.7045 139.361 31.6736L142.937 31.6273L144.325 28.4923L145.712 25.3728H154.76H163.824L165.211 28.5078L166.598 31.6273L170.251 31.6736C173.689 31.7045 173.905 31.689 173.843 31.4419C173.797 31.2875 170.652 24.1683 166.86 15.5974L159.97 0.0463333H154.853H149.75L142.86 15.5974ZM158.105 12.4471C159.723 16.107 161.111 19.242 161.157 19.381C161.265 19.6435 160.895 19.6589 154.76 19.6589C150.752 19.6589 148.286 19.5972 148.317 19.5199C148.348 19.4273 149.72 16.3078 151.369 12.5706C154.174 6.22353 154.405 5.76024 154.76 5.76024C155.115 5.76024 155.346 6.20809 158.105 12.4471Z" fill="black"/>
<path d="M94.3358 15.8754V31.7045H97.727H101.118L101.149 20.6164L101.195 9.54378L101.673 10.563C102.336 11.9683 102.814 12.6478 105.588 16.0762L107.978 19.0412H111.369H114.76L117.488 15.6438C119.477 13.1574 120.386 11.8757 120.879 10.8873L121.542 9.54378L121.588 20.6164L121.619 31.7045H125.01H128.402V15.8754V0.0463333H125.319H122.251L116.949 6.64049C113.403 11.0726 111.554 13.2501 111.369 13.2501C111.184 13.2501 109.319 11.0572 105.758 6.64049L100.44 0.0463333H97.3879H94.3358V15.8754Z" fill="black"/>
<path d="M51.3297 9.14226C51.3297 18.9177 51.3605 19.4273 52.1621 21.7592C53.2257 24.9096 55.507 27.8437 58.2662 29.6351C63.6612 33.1252 71.3375 33.1716 76.8867 29.7587C78.536 28.7394 80.9561 26.284 81.8347 24.7088C82.6362 23.2726 83.1295 22.0835 83.5919 20.462C83.9156 19.3037 83.931 18.9949 83.9773 9.65188L84.0235 0.0463333H80.617H77.2258V8.95694C77.2258 16.2152 77.1796 18.0838 76.9946 18.964C76.2701 22.4387 73.3722 25.342 69.904 26.0678C64.8789 27.1179 60.193 24.5698 58.6053 19.906L58.1891 18.6551L58.1429 9.34302L58.0966 0.0463333H54.7209H51.3297V9.14226Z" fill="black"/>
<path d="M0 15.9526V31.7045H3.39115H6.78231V28.3842V25.064H20.5011H34.2198V28.3842V31.7045H37.611H41.0021V15.9526V0.20076H37.611H34.2198V3.44379V6.68682H20.5011H6.78231V3.44379V0.20076H3.39115H0V15.9526ZM34.189 15.9063L34.2198 19.3501H20.5011H6.78231V15.9835C6.78231 14.1303 6.82855 12.5552 6.89021 12.5088C6.93645 12.4471 13.1022 12.4162 20.5627 12.4316L34.1428 12.4779L34.189 15.9063Z" fill="black"/>
</g>
<mask id="mask0_1_21" style="mask-type:alpha" maskUnits="userSpaceOnUse" x="43" y="44" width="151" height="28">
<path d="M90.9359 72V44.1931H115.883V49.9531H97.4904V66.24H116.28V72H90.9359ZM94.5111 60.5992V55.1172H114.095V60.5992H94.5111Z" fill="black"/>
<path d="M149.692 72L138.649 59.4472L124.864 44.1931H133.484L144.091 56.2295L158.352 72H149.692ZM124.666 72L137.894 56.8651L143.098 60.0033L133.048 72H124.666ZM145.044 59.0897L139.92 56.0706L149.493 44.1931H157.915L145.044 59.0897Z" fill="black"/>
<path d="M175.927 72V50.1517H164.883V44.1931H193.922V50.1517H182.68V72H175.927Z" fill="black"/>
<path d="M75.1853 72V44.1931H68.75L48.6099 64.0552L49.5235 63.8566C49.6824 62.8502 49.8148 61.8836 49.9207 60.9567C50.0002 60.0298 50.0664 59.1426 50.1194 58.2952C50.1723 57.4477 50.2121 56.6268 50.2385 55.8323C50.265 55.0378 50.2915 54.2433 50.318 53.4488C50.318 52.6543 50.318 51.8599 50.318 51.0654V44.1931H43.7635V72H50.2783L71.054 51.5023L69.4253 51.7804C69.3459 52.1777 69.2796 52.6279 69.2267 53.131C69.1472 53.6342 69.081 54.2036 69.0281 54.8392C68.9486 55.4748 68.8824 56.1898 68.8294 56.9843C68.75 57.7523 68.697 58.613 68.6705 59.5663C68.6441 60.5197 68.6308 61.5658 68.6308 62.7045V72H75.1853Z" fill="black"/>
</mask>
<g mask="url(#mask0_1_21)">
<rect x="-32.8967" y="44.069" width="298.241" height="27.931" fill="url(#paint0_linear_1_21)"/>
</g>
<defs>
<linearGradient id="paint0_linear_1_21" x1="116.224" y1="44.069" x2="116.224" y2="72" gradientUnits="userSpaceOnUse">
<stop stop-color="#ACF06B"/>
<stop offset="0.471154" stop-color="#00B79F"/>
<stop offset="1" stop-color="#006B7D"/>
</linearGradient>
<clipPath id="clip0_1_21">
<rect width="232.448" height="32.2759" fill="white"/>
</clipPath>
</defs>
</svg>
